<svg width="19" height="18" viewBox="0 0 19 18" fill="none" xmlns="http://www.w3.org/2000/svg">
<path d="M9.5 1.82812C8.08154 1.82812 6.69493 2.24875 5.51552 3.0368C4.33611 3.82486 3.41688 4.94495 2.87405 6.25544C2.33123 7.56593 2.18921 9.00796 2.46593 10.3992C2.74266 11.7904 3.42572 13.0683 4.42872 14.0713C5.43173 15.0743 6.70963 15.7573 8.10084 16.0341C9.49205 16.3108 10.9341 16.1688 12.2446 15.6259C13.555 15.0831 14.6751 14.1639 15.4632 12.9845C16.2513 11.8051 16.6719 10.4185 16.6719 9C16.6696 7.09859 15.9133 5.27569 14.5688 3.93119C13.2243 2.58668 11.4014 1.83036 9.5 1.82812ZM9.5 15.3281C8.24842 15.3281 7.02494 14.957 5.98429 14.2616C4.94363 13.5663 4.13254 12.578 3.65358 11.4217C3.17462 10.2654 3.0493 8.99298 3.29347 7.76544C3.53764 6.53791 4.14034 5.41034 5.02534 4.52534C5.91035 3.64034 7.03791 3.03764 8.26545 2.79347C9.49298 2.5493 10.7654 2.67461 11.9217 3.15357C13.078 3.63254 14.0663 4.44363 14.7616 5.48428C15.457 6.52494 15.8281 7.74842 15.8281 9C15.8263 10.6778 15.159 12.2863 13.9726 13.4726C12.7863 14.659 11.1778 15.3263 9.5 15.3281ZM12.7344 9C12.7344 9.11189 12.6899 9.21919 12.6108 9.29831C12.5317 9.37743 12.4244 9.42188 12.3125 9.42188H9.92188V11.8125C9.92188 11.9244 9.87743 12.0317 9.79831 12.1108C9.7192 12.1899 9.61189 12.2344 9.5 12.2344C9.38812 12.2344 9.28081 12.1899 9.20169 12.1108C9.12258 12.0317 9.07813 11.9244 9.07813 11.8125V9.42188H6.6875C6.57562 9.42188 6.46831 9.37743 6.38919 9.29831C6.31008 9.21919 6.26563 9.11189 6.26563 9C6.26563 8.88811 6.31008 8.78081 6.38919 8.70169C6.46831 8.62257 6.57562 8.57812 6.6875 8.57812H9.07813V6.1875C9.07813 6.07561 9.12258 5.96831 9.20169 5.88919C9.28081 5.81007 9.38812 5.76562 9.5 5.76562C9.61189 5.76562 9.7192 5.81007 9.79831 5.88919C9.87743 5.96831 9.92188 6.07561 9.92188 6.1875V8.57812H12.3125C12.4244 8.57812 12.5317 8.62257 12.6108 8.70169C12.6899 8.78081 12.7344 8.88811 12.7344 9Z" fill="#8A8A8A"/>
</svg>
