<svg width="14" height="14" viewBox="0 0 14 14" fill="none" xmlns="http://www.w3.org/2000/svg">
<path d="M12.1406 6.99991C12.1407 8.35144 11.6086 9.64864 10.6594 10.6107C9.71021 11.5728 8.42031 12.1224 7.06891 12.1405H7C5.68771 12.1433 4.42467 11.641 3.47266 10.7378C3.44029 10.7085 3.4141 10.673 3.39562 10.6334C3.37715 10.5939 3.36676 10.551 3.36506 10.5074C3.36337 10.4637 3.3704 10.4202 3.38575 10.3793C3.4011 10.3384 3.42446 10.301 3.45445 10.2693C3.48445 10.2375 3.52047 10.2121 3.56043 10.1944C3.60038 10.1768 3.64345 10.1673 3.68712 10.1665C3.73078 10.1658 3.77416 10.1737 3.81472 10.1899C3.85527 10.2061 3.89218 10.2303 3.92328 10.2609C4.56453 10.8656 5.36973 11.2679 6.23829 11.4175C7.10685 11.5672 8.00026 11.4576 8.80689 11.1024C9.61352 10.7472 10.2976 10.1622 10.7737 9.4205C11.2497 8.67878 11.4967 7.81321 11.4836 6.93195C11.4706 6.05068 11.1982 5.1928 10.7004 4.46547C10.2026 3.73815 9.50149 3.17365 8.68471 2.84249C7.86793 2.51132 6.97167 2.42819 6.10791 2.60347C5.24416 2.77876 4.4512 3.20468 3.82812 3.82804L3.81773 3.83843L2.15687 5.35929H3.9375C4.02452 5.35929 4.10798 5.39386 4.16952 5.45539C4.23105 5.51693 4.26562 5.60039 4.26562 5.68741C4.26562 5.77444 4.23105 5.8579 4.16952 5.91943C4.10798 5.98097 4.02452 6.01554 3.9375 6.01554H1.3125C1.22548 6.01554 1.14202 5.98097 1.08048 5.91943C1.01895 5.8579 0.984375 5.77444 0.984375 5.68741V3.06241C0.984375 2.97539 1.01895 2.89193 1.08048 2.83039C1.14202 2.76886 1.22548 2.73429 1.3125 2.73429C1.39952 2.73429 1.48298 2.76886 1.54452 2.83039C1.60605 2.89193 1.64062 2.97539 1.64062 3.06241V4.94038L3.37039 3.35773C4.09003 2.6402 5.0062 2.15207 6.00314 1.955C7.00009 1.75794 8.03307 1.86078 8.97159 2.25054C9.91011 2.6403 10.7121 3.29948 11.2761 4.14481C11.8401 4.99014 12.141 5.98368 12.1406 6.99991Z" fill="black"/>
</svg>
