<svg width="19" height="18" viewBox="0 0 19 18" fill="none" xmlns="http://www.w3.org/2000/svg">
<path d="M16.6719 9.59695C16.5548 10.9597 16.0509 12.2606 15.2195 13.3466C14.3881 14.4327 13.2638 15.2587 11.9789 15.7275C10.694 16.1962 9.30196 16.2883 7.96653 15.9928C6.6311 15.6972 5.40785 15.0264 4.44071 14.0593C3.47357 13.0922 2.80278 11.8689 2.50726 10.5335C2.21173 9.19806 2.30377 7.806 2.77255 6.5211C3.24132 5.2362 4.06733 4.11192 5.15338 3.28054C6.23944 2.44915 7.54035 1.94525 8.90307 1.82812C9.01496 1.8188 9.12597 1.8543 9.21168 1.92683C9.29739 1.99935 9.35078 2.10295 9.3601 2.21484C9.36942 2.32673 9.33392 2.43774 9.26139 2.52345C9.18887 2.60916 9.08527 2.66255 8.97338 2.67187C7.77052 2.77488 6.6221 3.21933 5.66328 3.95292C4.70446 4.68652 3.97514 5.67872 3.56113 6.81278C3.14712 7.94684 3.06565 9.17556 3.32632 10.3543C3.58699 11.5331 4.17894 12.6129 5.03252 13.4667C5.8861 14.3204 6.96578 14.9126 8.14452 15.1735C9.32325 15.4344 10.552 15.3532 11.6861 14.9395C12.8203 14.5257 13.8126 13.7965 14.5464 12.8379C15.2802 11.8792 15.7249 10.7309 15.8281 9.52805C15.8328 9.47264 15.8482 9.41869 15.8737 9.36928C15.8992 9.31986 15.9341 9.27594 15.9766 9.24003C16.0623 9.16751 16.1733 9.132 16.2852 9.14133C16.3406 9.14594 16.3945 9.16143 16.4439 9.18689C16.4934 9.21236 16.5373 9.24731 16.5732 9.28975C16.6091 9.33219 16.6363 9.38129 16.6532 9.43424C16.6702 9.48719 16.6765 9.54296 16.6719 9.59836V9.59695ZM9.07815 5.0625V9C9.07815 9.11189 9.12259 9.21919 9.20171 9.29831C9.28083 9.37743 9.38813 9.42187 9.50002 9.42187H13.4375C13.5494 9.42187 13.6567 9.37743 13.7358 9.29831C13.8149 9.21919 13.8594 9.11189 13.8594 9C13.8594 8.88811 13.8149 8.78081 13.7358 8.70169C13.6567 8.62257 13.5494 8.57812 13.4375 8.57812H9.9219V5.0625C9.9219 4.95061 9.87745 4.84331 9.79833 4.76419C9.71922 4.68507 9.61191 4.64062 9.50002 4.64062C9.38813 4.64062 9.28083 4.68507 9.20171 4.76419C9.12259 4.84331 9.07815 4.95061 9.07815 5.0625ZM11.75 3.23437C11.8891 3.23437 12.025 3.19314 12.1407 3.11588C12.2563 3.03862 12.3464 2.9288 12.3996 2.80032C12.4528 2.67184 12.4668 2.53047 12.4396 2.39408C12.4125 2.25768 12.3455 2.1324 12.2472 2.03406C12.1489 1.93573 12.0236 1.86876 11.8872 1.84163C11.7508 1.8145 11.6094 1.82843 11.4809 1.88165C11.3525 1.93486 11.2427 2.02498 11.1654 2.14061C11.0881 2.25624 11.0469 2.39218 11.0469 2.53125C11.0469 2.62358 11.0651 2.71502 11.1004 2.80032C11.1358 2.88563 11.1875 2.96314 11.2528 3.02843C11.3847 3.16029 11.5635 3.23437 11.75 3.23437ZM14.2813 4.92187C14.4203 4.92187 14.5563 4.88064 14.6719 4.80338C14.7875 4.72612 14.8777 4.6163 14.9309 4.48782C14.9841 4.35934 14.998 4.21797 14.9709 4.08158C14.9438 3.94518 14.8768 3.8199 14.7785 3.72156C14.6801 3.62323 14.5548 3.55626 14.4184 3.52913C14.2821 3.502 14.1407 3.51593 14.0122 3.56915C13.8837 3.62236 13.7739 3.71248 13.6966 3.82811C13.6194 3.94374 13.5781 4.07968 13.5781 4.21875C13.5781 4.40523 13.6522 4.58407 13.7841 4.71593C13.9159 4.84779 14.0948 4.92187 14.2813 4.92187ZM15.9688 7.45312C16.1078 7.45312 16.2438 7.41189 16.3594 7.33463C16.475 7.25737 16.5652 7.14755 16.6184 7.01907C16.6716 6.89059 16.6855 6.74922 16.6584 6.61283C16.6313 6.47643 16.5643 6.35115 16.466 6.25281C16.3676 6.15448 16.2423 6.08751 16.1059 6.06038C15.9696 6.03325 15.8282 6.04718 15.6997 6.1004C15.5712 6.15361 15.4614 6.24373 15.3841 6.35936C15.3069 6.47499 15.2656 6.61093 15.2656 6.75C15.2656 6.93648 15.3397 7.11532 15.4716 7.24718C15.6034 7.37904 15.7823 7.45312 15.9688 7.45312Z" fill="#8A8A8A"/>
</svg>
